<svg width="80" height="80" viewBox="0 0 80 80" fill="none" xmlns="http://www.w3.org/2000/svg">
  <circle cx="40" cy="40" r="35" fill="url(#gradient1)"/>
  <path d="M25 30 C25 20, 35 15, 40 20 C45 15, 55 20, 55 30 C55 40, 50 50, 40 55 C30 50, 25 40, 25 30 Z" fill="white" opacity="0.9"/>
  <circle cx="35" cy="35" r="3" fill="#1e40af"/>
  <circle cx="45" cy="35" r="3" fill="#1e40af"/>
  <path d="M30 45 C30 42, 35 40, 40 42 C45 40, 50 42, 50 45" stroke="#1e40af" stroke-width="2" fill="none"/>
  <circle cx="40" cy="25" r="2" fill="#10b981"/>
  <circle cx="30" cy="20" r="1.5" fill="#10b981"/>
  <circle cx="50" cy="20" r="1.5" fill="#10b981"/>
  <defs>
    <linearGradient id="gradient1" x1="0%" y1="0%" x2="100%" y2="100%">
      <stop offset="0%" style="stop-color:#1e40af"/>
      <stop offset="50%" style="stop-color:#3b82f6"/>
      <stop offset="100%" style="stop-color:#8b5cf6"/>
    </linearGradient>
  </defs>
</svg>
