<svg width="80" height="80" viewBox="0 0 80 80" fill="none" xmlns="http://www.w3.org/2000/svg">
  <defs>
    <linearGradient id="chartGradient" x1="0%" y1="0%" x2="100%" y2="100%">
      <stop offset="0%" style="stop-color:#1e40af"/>
      <stop offset="50%" style="stop-color:#3b82f6"/>
      <stop offset="100%" style="stop-color:#8b5cf6"/>
    </linearGradient>
    <linearGradient id="barGradient" x1="0%" y1="0%" x2="100%" y2="100%">
      <stop offset="0%" style="stop-color:#10b981"/>
      <stop offset="100%" style="stop-color:#34d399"/>
    </linearGradient>
    <filter id="chartGlow" x="-50%" y="-50%" width="200%" height="200%">
      <feGaussianBlur stdDeviation="2" result="coloredBlur"/>
      <feMerge> 
        <feMergeNode in="coloredBlur"/>
        <feMergeNode in="SourceGraphic"/>
      </feMerge>
    </filter>
  </defs>
  
  <!-- Background Circle -->
  <circle cx="40" cy="40" r="35" fill="url(#chartGradient)" filter="url(#chartGlow)"/>
  
  <!-- Chart Background -->
  <rect x="20" y="25" width="40" height="30" rx="2" fill="white" opacity="0.95"/>
  
  <!-- Chart Grid Lines -->
  <path d="M20 30 L60 30" stroke="#e2e8f0" stroke-width="1"/>
  <path d="M20 35 L60 35" stroke="#e2e8f0" stroke-width="1"/>
  <path d="M20 40 L60 40" stroke="#e2e8f0" stroke-width="1"/>
  <path d="M20 45 L60 45" stroke="#e2e8f0" stroke-width="1"/>
  <path d="M20 50 L60 50" stroke="#e2e8f0" stroke-width="1"/>
  
  <path d="M25 25 L25 55" stroke="#e2e8f0" stroke-width="1"/>
  <path d="M30 25 L30 55" stroke="#e2e8f0" stroke-width="1"/>
  <path d="M35 25 L35 55" stroke="#e2e8f0" stroke-width="1"/>
  <path d="M40 25 L40 55" stroke="#e2e8f0" stroke-width="1"/>
  <path d="M45 25 L45 55" stroke="#e2e8f0" stroke-width="1"/>
  <path d="M50 25 L50 55" stroke="#e2e8f0" stroke-width="1"/>
  <path d="M55 25 L55 55" stroke="#e2e8f0" stroke-width="1"/>
  
  <!-- Chart Bars -->
  <rect x="22" y="40" width="4" height="15" fill="url(#barGradient)" opacity="0.8"/>
  <rect x="28" y="35" width="4" height="20" fill="url(#barGradient)" opacity="0.8"/>
  <rect x="34" y="30" width="4" height="25" fill="url(#barGradient)" opacity="0.8"/>
  <rect x="40" y="25" width="4" height="30" fill="url(#barGradient)" opacity="0.8"/>
  <rect x="46" y="32" width="4" height="23" fill="url(#barGradient)" opacity="0.8"/>
  <rect x="52" y="38" width="4" height="17" fill="url(#barGradient)" opacity="0.8"/>
  
  <!-- Trend Line -->
  <path d="M24 45 L30 40 L36 35 L42 30 L48 37 L54 43" stroke="#1e40af" stroke-width="2" fill="none" stroke-linecap="round"/>
  
  <!-- Data Points -->
  <circle cx="24" cy="45" r="2" fill="#1e40af"/>
  <circle cx="30" cy="40" r="2" fill="#1e40af"/>
  <circle cx="36" cy="35" r="2" fill="#1e40af"/>
  <circle cx="42" cy="30" r="2" fill="#1e40af"/>
  <circle cx="48" cy="37" r="2" fill="#1e40af"/>
  <circle cx="54" cy="43" r="2" fill="#1e40af"/>
  
  <!-- Chart Title -->
  <text x="40" y="20" text-anchor="middle" font-family="Arial, sans-serif" font-size="6" font-weight="bold" fill="#1e40af">ANALYTICS</text>
  
  <!-- Performance Indicators -->
  <circle cx="15" cy="15" r="2" fill="#10b981"/>
  <circle cx="20" cy="15" r="2" fill="#10b981"/>
  <circle cx="25" cy="15" r="2" fill="#10b981"/>
  <circle cx="30" cy="15" r="2" fill="#10b981"/>
  <circle cx="35" cy="15" r="2" fill="#10b981"/>
  
  <circle cx="45" cy="15" r="2" fill="#ef4444"/>
  <circle cx="50" cy="15" r="2" fill="#ef4444"/>
  <circle cx="55" cy="15" r="2" fill="#ef4444"/>
  <circle cx="60" cy="15" r="2" fill="#ef4444"/>
  <circle cx="65" cy="15" r="2" fill="#ef4444"/>
  
  <!-- Arrow Indicators -->
  <path d="M15 60 L20 55" stroke="#10b981" stroke-width="2" fill="none" marker-end="url(#arrowUp)"/>
  <path d="M65 60 L60 55" stroke="#ef4444" stroke-width="2" fill="none" marker-end="url(#arrowDown)"/>
  
  <defs>
    <marker id="arrowUp" markerWidth="10" markerHeight="7" refX="9" refY="3.5" orient="auto">
      <polygon points="0 0, 10 3.5, 0 7" fill="#10b981"/>
    </marker>
    <marker id="arrowDown" markerWidth="10" markerHeight="7" refX="9" refY="3.5" orient="auto">
      <polygon points="0 7, 10 3.5, 0 0" fill="#ef4444"/>
    </marker>
  </defs>
</svg>
