<svg width="80" height="80" viewBox="0 0 80 80" fill="none" xmlns="http://www.w3.org/2000/svg">
  <defs>
    <linearGradient id="shieldGradient" x1="0%" y1="0%" x2="100%" y2="100%">
      <stop offset="0%" style="stop-color:#1e40af"/>
      <stop offset="50%" style="stop-color:#3b82f6"/>
      <stop offset="100%" style="stop-color:#8b5cf6"/>
    </linearGradient>
    <linearGradient id="checkGradient" x1="0%" y1="0%" x2="100%" y2="100%">
      <stop offset="0%" style="stop-color:#10b981"/>
      <stop offset="100%" style="stop-color:#34d399"/>
    </linearGradient>
    <filter id="shieldGlow" x="-50%" y="-50%" width="200%" height="200%">
      <feGaussianBlur stdDeviation="2" result="coloredBlur"/>
      <feMerge> 
        <feMergeNode in="coloredBlur"/>
        <feMergeNode in="SourceGraphic"/>
      </feMerge>
    </filter>
  </defs>
  
  <!-- Background Circle -->
  <circle cx="40" cy="40" r="35" fill="url(#shieldGradient)" filter="url(#shieldGlow)"/>
  
  <!-- Shield Shape -->
  <path d="M40 15 L50 25 L50 40 C50 50, 40 60, 40 60 C40 60, 30 50, 30 40 L30 25 L40 15 Z" fill="white" opacity="0.95"/>
  
  <!-- Shield Inner Pattern -->
  <path d="M35 25 L45 25 L45 35 L35 35 Z" fill="url(#shieldGradient)" opacity="0.1"/>
  <path d="M37 27 L43 27 L43 33 L37 33 Z" fill="url(#shieldGradient)" opacity="0.2"/>
  
  <!-- Check Mark -->
  <path d="M35 40 L38 43 L45 35" stroke="url(#checkGradient)" stroke-width="3" fill="none" stroke-linecap="round" stroke-linejoin="round"/>
  
  <!-- Security Lines -->
  <path d="M30 30 L50 30" stroke="#1e40af" stroke-width="1" opacity="0.3"/>
  <path d="M30 35 L50 35" stroke="#1e40af" stroke-width="1" opacity="0.3"/>
  <path d="M30 40 L50 40" stroke="#1e40af" stroke-width="1" opacity="0.3"/>
  
  <!-- Corner Decorations -->
  <circle cx="35" cy="25" r="1.5" fill="#10b981"/>
  <circle cx="45" cy="25" r="1.5" fill="#10b981"/>
  <circle cx="35" cy="35" r="1" fill="#34d399"/>
  <circle cx="45" cy="35" r="1" fill="#34d399"/>
  
  <!-- Data Protection Icons -->
  <rect x="32" y="45" width="16" height="8" rx="2" fill="#1e40af" opacity="0.1"/>
  <rect x="34" y="47" width="12" height="4" rx="1" fill="#1e40af" opacity="0.2"/>
  <circle cx="36" cy="49" r="0.5" fill="#10b981"/>
  <circle cx="38" cy="49" r="0.5" fill="#10b981"/>
  <circle cx="40" cy="49" r="0.5" fill="#10b981"/>
  <circle cx="42" cy="49" r="0.5" fill="#10b981"/>
  <circle cx="44" cy="49" r="0.5" fill="#10b981"/>
  
  <!-- Security Badge -->
  <circle cx="40" cy="20" r="3" fill="#10b981"/>
  <text x="40" y="23" text-anchor="middle" font-family="Arial, sans-serif" font-size="4" font-weight="bold" fill="white">S</text>
</svg>
