<svg width="80" height="80" viewBox="0 0 80 80" fill="none" xmlns="http://www.w3.org/2000/svg">
  <defs>
    <linearGradient id="communityGradient" x1="0%" y1="0%" x2="100%" y2="100%">
      <stop offset="0%" style="stop-color:#1e40af"/>
      <stop offset="50%" style="stop-color:#3b82f6"/>
      <stop offset="100%" style="stop-color:#8b5cf6"/>
    </linearGradient>
    <linearGradient id="userGradient" x1="0%" y1="0%" x2="100%" y2="100%">
      <stop offset="0%" style="stop-color:#10b981"/>
      <stop offset="100%" style="stop-color:#34d399"/>
    </linearGradient>
    <filter id="communityGlow" x="-50%" y="-50%" width="200%" height="200%">
      <feGaussianBlur stdDeviation="2" result="coloredBlur"/>
      <feMerge> 
        <feMergeNode in="coloredBlur"/>
        <feMergeNode in="SourceGraphic"/>
      </feMerge>
    </filter>
  </defs>
  
  <!-- Background Circle -->
  <circle cx="40" cy="40" r="35" fill="url(#communityGradient)" filter="url(#communityGlow)"/>
  
  <!-- Main User (Center) -->
  <circle cx="40" cy="35" r="10" fill="white" opacity="0.95"/>
  <path d="M30 50 C30 45, 35 40, 40 40 C45 40, 50 45, 50 50 L50 60 L30 60 Z" fill="white" opacity="0.95"/>
  
  <!-- Left User -->
  <circle cx="25" cy="30" r="8" fill="white" opacity="0.9"/>
  <path d="M20 45 C20 42, 22 40, 25 40 C28 40, 30 42, 30 45 L30 55 L20 55 Z" fill="white" opacity="0.9"/>
  
  <!-- Right User -->
  <circle cx="55" cy="30" r="8" fill="white" opacity="0.9"/>
  <path d="M50 45 C50 42, 52 40, 55 40 C58 40, 60 42, 60 45 L60 55 L50 55 Z" fill="white" opacity="0.9"/>
  
  <!-- User Faces -->
  <circle cx="37" cy="33" r="1.5" fill="#1e40af"/>
  <circle cx="43" cy="33" r="1.5" fill="#1e40af"/>
  <path d="M35 37 C35 35, 37 33, 40 33 C43 33, 45 35, 45 37" stroke="#1e40af" stroke-width="1.5" fill="none"/>
  
  <circle cx="22" cy="28" r="1" fill="#1e40af"/>
  <circle cx="28" cy="28" r="1" fill="#1e40af"/>
  <path d="M20 32 C20 30, 22 28, 25 28 C28 28, 30 30, 30 32" stroke="#1e40af" stroke-width="1" fill="none"/>
  
  <circle cx="52" cy="28" r="1" fill="#1e40af"/>
  <circle cx="58" cy="28" r="1" fill="#1e40af"/>
  <path d="M50 32 C50 30, 52 28, 55 28 C58 28, 60 30, 60 32" stroke="#1e40af" stroke-width="1" fill="none"/>
  
  <!-- Connection Lines -->
  <path d="M33 35 L27 32" stroke="url(#userGradient)" stroke-width="2" fill="none" opacity="0.8"/>
  <path d="M47 35 L53 32" stroke="url(#userGradient)" stroke-width="2" fill="none" opacity="0.8"/>
  <path d="M30 50 C30 45, 25 45, 25 45" stroke="url(#userGradient)" stroke-width="2" fill="none" opacity="0.6"/>
  <path d="M50 50 C50 45, 55 45, 55 45" stroke="url(#userGradient)" stroke-width="2" fill="none" opacity="0.6"/>
  
  <!-- Community Badge -->
  <circle cx="40" cy="65" r="8" fill="url(#userGradient)"/>
  <text x="40" y="69" text-anchor="middle" font-family="Arial, sans-serif" font-size="6" font-weight="bold" fill="white">C</text>
  
  <!-- Online Indicators -->
  <circle cx="27" cy="27" r="2" fill="#10b981"/>
  <circle cx="53" cy="27" r="2" fill="#10b981"/>
  <circle cx="40" cy="32" r="2" fill="#10b981"/>
  
  <!-- Chat Bubbles -->
  <ellipse cx="20" cy="20" rx="6" ry="4" fill="white" opacity="0.9"/>
  <path d="M20 24 L15 30 L20 30 Z" fill="white" opacity="0.9"/>
  <text x="20" y="22" text-anchor="middle" font-family="Arial, sans-serif" font-size="3" fill="#1e40af">Hi!</text>
  
  <ellipse cx="60" cy="20" rx="6" ry="4" fill="white" opacity="0.9"/>
  <path d="M60 24 L65 30 L60 30 Z" fill="white" opacity="0.9"/>
  <text x="60" y="22" text-anchor="middle" font-family="Arial, sans-serif" font-size="3" fill="#1e40af">👍</text>
  
  <!-- Activity Indicators -->
  <rect x="32" y="70" width="16" height="6" rx="3" fill="#1e40af" opacity="0.1"/>
  <rect x="34" y="72" width="12" height="2" rx="1" fill="#1e40af" opacity="0.2"/>
  <circle cx="36" cy="73" r="0.5" fill="#10b981"/>
  <circle cx="38" cy="73" r="0.5" fill="#10b981"/>
  <circle cx="40" cy="73" r="0.5" fill="#10b981"/>
  <circle cx="42" cy="73" r="0.5" fill="#10b981"/>
  <circle cx="44" cy="73" r="0.5" fill="#10b981"/>
  
  <!-- Network Nodes -->
  <circle cx="15" cy="15" r="2" fill="#fbbf24"/>
  <circle cx="65" cy="15" r="2" fill="#fbbf24"/>
  <circle cx="15" cy="65" r="2" fill="#fbbf24"/>
  <circle cx="65" cy="65" r="2" fill="#fbbf24"/>
  
  <!-- Network Connections -->
  <path d="M15 15 L25 30" stroke="#fbbf24" stroke-width="1" fill="none" opacity="0.6"/>
  <path d="M65 15 L55 30" stroke="#fbbf24" stroke-width="1" fill="none" opacity="0.6"/>
  <path d="M15 65 L30 50" stroke="#fbbf24" stroke-width="1" fill="none" opacity="0.6"/>
  <path d="M65 65 L50 50" stroke="#fbbf24" stroke-width="1" fill="none" opacity="0.6"/>
</svg>
