<svg width="80" height="80" viewBox="0 0 80 80" fill="none" xmlns="http://www.w3.org/2000/svg">
  <defs>
    <linearGradient id="expertGradient" x1="0%" y1="0%" x2="100%" y2="100%">
      <stop offset="0%" style="stop-color:#1e40af"/>
      <stop offset="50%" style="stop-color:#3b82f6"/>
      <stop offset="100%" style="stop-color:#8b5cf6"/>
    </linearGradient>
    <linearGradient id="starGradient" x1="0%" y1="0%" x2="100%" y2="100%">
      <stop offset="0%" style="stop-color:#fbbf24"/>
      <stop offset="100%" style="stop-color:#f59e0b"/>
    </linearGradient>
    <filter id="expertGlow" x="-50%" y="-50%" width="200%" height="200%">
      <feGaussianBlur stdDeviation="2" result="coloredBlur"/>
      <feMerge> 
        <feMergeNode in="coloredBlur"/>
        <feMergeNode in="SourceGraphic"/>
      </feMerge>
    </filter>
  </defs>
  
  <!-- Background Circle -->
  <circle cx="40" cy="40" r="35" fill="url(#expertGradient)" filter="url(#expertGlow)"/>
  
  <!-- Expert Figure -->
  <circle cx="40" cy="30" r="8" fill="white" opacity="0.95"/>
  <path d="M30 45 C30 40, 35 35, 40 35 C45 35, 50 40, 50 45 L50 55 L30 55 Z" fill="white" opacity="0.95"/>
  
  <!-- Expert Face -->
  <circle cx="37" cy="28" r="1.5" fill="#1e40af"/>
  <circle cx="43" cy="28" r="1.5" fill="#1e40af"/>
  <path d="M35 32 C35 30, 37 28, 40 28 C43 28, 45 30, 45 32" stroke="#1e40af" stroke-width="1.5" fill="none"/>
  
  <!-- Graduation Cap -->
  <path d="M35 20 L45 20 L44 25 L36 25 Z" fill="url(#starGradient)"/>
  <rect x="36" y="22" width="8" height="2" fill="url(#starGradient)"/>
  <circle cx="40" cy="23" r="1" fill="white"/>
  
  <!-- Knowledge Stars -->
  <path d="M20 20 L22 25 L27 25 L23 28 L25 33 L20 30 L15 33 L17 28 L13 25 L18 25 Z" fill="url(#starGradient)" opacity="0.8"/>
  <path d="M60 20 L62 25 L67 25 L63 28 L65 33 L60 30 L55 33 L57 28 L53 25 L58 25 Z" fill="url(#starGradient)" opacity="0.8"/>
  <path d="M20 60 L22 65 L27 65 L23 68 L25 73 L20 70 L15 73 L17 68 L13 65 L18 65 Z" fill="url(#starGradient)" opacity="0.6"/>
  <path d="M60 60 L62 65 L67 65 L63 68 L65 73 L60 70 L55 73 L57 68 L53 65 L58 65 Z" fill="url(#starGradient)" opacity="0.6"/>
  
  <!-- Expert Badge -->
  <circle cx="40" cy="50" r="6" fill="#10b981"/>
  <text x="40" y="54" text-anchor="middle" font-family="Arial, sans-serif" font-size="6" font-weight="bold" fill="white">E</text>
  
  <!-- Knowledge Lines -->
  <path d="M25 35 L35 30" stroke="#10b981" stroke-width="1" opacity="0.6"/>
  <path d="M55 35 L45 30" stroke="#10b981" stroke-width="1" opacity="0.6"/>
  <path d="M25 45 L35 40" stroke="#10b981" stroke-width="1" opacity="0.4"/>
  <path d="M55 45 L45 40" stroke="#10b981" stroke-width="1" opacity="0.4"/>
  
  <!-- Expertise Indicators -->
  <rect x="32" y="60" width="16" height="8" rx="2" fill="#1e40af" opacity="0.1"/>
  <rect x="34" y="62" width="12" height="4" rx="1" fill="#1e40af" opacity="0.2"/>
  <circle cx="36" cy="64" r="0.5" fill="#10b981"/>
  <circle cx="38" cy="64" r="0.5" fill="#10b981"/>
  <circle cx="40" cy="64" r="0.5" fill="#10b981"/>
  <circle cx="42" cy="64" r="0.5" fill="#10b981"/>
  <circle cx="44" cy="64" r="0.5" fill="#10b981"/>
  
  <!-- Consultation Lines -->
  <path d="M15 25 L20 30" stroke="#fbbf24" stroke-width="1.5" fill="none" marker-end="url(#consultationArrow)"/>
  <path d="M65 25 L60 30" stroke="#fbbf24" stroke-width="1.5" fill="none" marker-end="url(#consultationArrow)"/>
  
  <defs>
    <marker id="consultationArrow" markerWidth="10" markerHeight="7" refX="9" refY="3.5" orient="auto">
      <polygon points="0 0, 10 3.5, 0 7" fill="#fbbf24"/>
    </marker>
  </defs>
</svg>
