<svg width="80" height="80" viewBox="0 0 80 80" fill="none" xmlns="http://www.w3.org/2000/svg">
  <defs>
    <linearGradient id="mobileGradient" x1="0%" y1="0%" x2="100%" y2="100%">
      <stop offset="0%" style="stop-color:#1e40af"/>
      <stop offset="50%" style="stop-color:#3b82f6"/>
      <stop offset="100%" style="stop-color:#8b5cf6"/>
    </linearGradient>
    <linearGradient id="screenGradient" x1="0%" y1="0%" x2="100%" y2="100%">
      <stop offset="0%" style="stop-color:#10b981"/>
      <stop offset="100%" style="stop-color:#34d399"/>
    </linearGradient>
    <filter id="mobileGlow" x="-50%" y="-50%" width="200%" height="200%">
      <feGaussianBlur stdDeviation="2" result="coloredBlur"/>
      <feMerge> 
        <feMergeNode in="coloredBlur"/>
        <feMergeNode in="SourceGraphic"/>
      </feMerge>
    </filter>
  </defs>
  
  <!-- Background Circle -->
  <circle cx="40" cy="40" r="35" fill="url(#mobileGradient)" filter="url(#mobileGlow)"/>
  
  <!-- Mobile Device -->
  <rect x="30" y="20" width="20" height="35" rx="3" fill="white" opacity="0.95"/>
  <rect x="32" y="22" width="16" height="25" rx="1" fill="#1e40af"/>
  
  <!-- Screen Content -->
  <rect x="33" y="23" width="14" height="8" rx="1" fill="url(#screenGradient)" opacity="0.8"/>
  <rect x="33" y="32" width="14" height="2" rx="1" fill="white" opacity="0.9"/>
  <rect x="33" y="35" width="14" height="2" rx="1" fill="white" opacity="0.7"/>
  <rect x="33" y="38" width="10" height="2" rx="1" fill="white" opacity="0.5"/>
  
  <!-- Mobile Icons -->
  <circle cx="35" cy="25" r="1" fill="white"/>
  <circle cx="37" cy="25" r="1" fill="white"/>
  <circle cx="39" cy="25" r="1" fill="white"/>
  <circle cx="41" cy="25" r="1" fill="white"/>
  <circle cx="43" cy="25" r="1" fill="white"/>
  
  <!-- Home Button -->
  <circle cx="40" cy="50" r="2" fill="white" opacity="0.8"/>
  
  <!-- Signal Bars -->
  <rect x="15" y="15" width="2" height="4" fill="#10b981"/>
  <rect x="18" y="13" width="2" height="6" fill="#10b981"/>
  <rect x="21" y="11" width="2" height="8" fill="#10b981"/>
  <rect x="24" y="9" width="2" height="10" fill="#10b981"/>
  
  <!-- WiFi Signal -->
  <path d="M65 15 Q70 20, 65 25" stroke="#10b981" stroke-width="2" fill="none"/>
  <path d="M65 20 Q68 23, 65 26" stroke="#10b981" stroke-width="2" fill="none"/>
  <path d="M65 22 Q67 24, 65 26" stroke="#10b981" stroke-width="2" fill="none"/>
  
  <!-- Cloud Sync -->
  <path d="M20 60 Q25 55, 30 60 Q35 65, 40 60 Q45 65, 50 60 Q55 55, 60 60" stroke="#10b981" stroke-width="2" fill="none" opacity="0.8"/>
  <circle cx="30" cy="60" r="1" fill="#10b981"/>
  <circle cx="40" cy="60" r="1" fill="#10b981"/>
  <circle cx="50" cy="60" r="1" fill="#10b981"/>
  
  <!-- Data Flow -->
  <path d="M15 30 L25 30" stroke="#10b981" stroke-width="1" fill="none" marker-end="url(#dataArrow)"/>
  <path d="M65 30 L55 30" stroke="#10b981" stroke-width="1" fill="none" marker-end="url(#dataArrow)"/>
  <path d="M15 50 L25 50" stroke="#10b981" stroke-width="1" fill="none" marker-end="url(#dataArrow)"/>
  <path d="M65 50 L55 50" stroke="#10b981" stroke-width="1" fill="none" marker-end="url(#dataArrow)"/>
  
  <!-- App Icons -->
  <rect x="33" y="42" width="3" height="3" rx="0.5" fill="#fbbf24"/>
  <rect x="37" y="42" width="3" height="3" rx="0.5" fill="#ef4444"/>
  <rect x="41" y="42" width="3" height="3" rx="0.5" fill="#10b981"/>
  <rect x="45" y="42" width="3" height="3" rx="0.5" fill="#8b5cf6"/>
  
  <!-- Notification -->
  <circle cx="45" cy="25" r="1.5" fill="#ef4444"/>
  <text x="45" y="26" text-anchor="middle" font-family="Arial, sans-serif" font-size="2" font-weight="bold" fill="white">3</text>
  
  <defs>
    <marker id="dataArrow" markerWidth="10" markerHeight="7" refX="9" refY="3.5" orient="auto">
      <polygon points="0 0, 10 3.5, 0 7" fill="#10b981"/>
    </marker>
  </defs>
</svg>
